<svg xmlns="http://www.w3.org/2000/svg" aria-label="ResearchGate" role="img" viewBox="0 0 16 16">
  <path fill="#00ccba" fill-rule="evenodd" d="M2 0h12a2 2 0 0 1 2 2v12a2 2 0 0 1-2 2H2a2 2 0 0 1-2-2V2C0 .9.9 0 2 0zm8.37 13.23v.4c0 .11-.42.26-.8.2-.8-.1-1.5-.3-2-.9-.5-.6-1.3-1.8-2-3.2h-1v2.3c.1 1-.1 1 1.3 1v.7h-3.6v-.6c1.1 0 1-.2 1-1.1v-5.7c0-.8 0-1-1-1v-.6l3.6-.1c1.8 0 3 .9 3 2.4 0 1.1-.9 2.2-2 2.5a17 17 0 0 0 2 2.9c.63.76 1.5.68 1.5.8zm-5.8-4.4v-3.3c2.3 0 2.8 0 2.9 1.6-.02 1.53-.83 1.74-2.9 1.7zm7.4-4.3v-.55c0-.14.1-.1 1.84-.1 0 0 .06.08.06.15-.01 1.64-.4 2.7-1.8 2.7-2 0-1.95-1.76-1.96-2.46-.01-1.48.43-2.6 1.96-2.64 1.2 0 1.82 1.1 1.62 1.2l-.6.29c-.2-.04-.29-.67-1.02-.64-.92.02-1.08.46-1.08 1.79 0 1.34.17 1.67 1.08 1.66.47.01.94-.58.94-1.28-.94-.02-1.05 0-1.04-.12z"/>
</svg>
